<svg viewBox="0 0 513 512" xmlns="http://www.w3.org/2000/svg">
  <path fill="currentColor" fill-rule="evenodd" clip-rule="evenodd" d="M402.088,272.575c0.005,-1.602 0.016,-3.132 0.019,-4.576c-2.016,-5.461 -8.079,-16.149 -25.915,-26.566c-16.701,-9.753 -35.546,-10.413 -47.47,-12.435c-7.995,-1.357 -13.714,-3.809 -16.673,-7.015c-12.591,-13.647 -25.193,-19.583 -38.485,-22.708c-5.942,-1.397 -11.144,-2.025 -17.808,-2.386c-6.627,0.361 -11.364,0.992 -17.292,2.386c-13.292,3.125 -25.894,9.061 -38.486,22.708c-2.958,3.206 -8.677,5.658 -16.672,7.015c-11.924,2.022 -30.769,2.682 -47.47,12.435c-17.836,10.417 -23.899,21.105 -25.915,26.566c0.038,16.834 1.123,45.332 -18.874,65.398c-18.101,18.163 -50.538,20.306 -70.027,16.708c-6.55,-1.209 -11.725,-3.099 -14.8,-4.99l-3.241,-2.543l-2.075,-2.779l-1.261,-3.529l-0.051,-4.746c0.539,-3.426 2.753,-8.149 6.896,-13.192c10.35,-12.6 33.71,-29.529 56.869,-34.622c3.921,-0.862 8.06,-3.555 12.034,-6.579c4.032,-3.068 7.835,-6.575 11.005,-9.698c-24.989,-27.292 -19.619,-48.51 -18.754,-57.241l0.002,-0.016c0.025,-0.256 0.062,-0.51 0.109,-0.763l0.019,-0.103c2.785,-14.893 8.288,-30.285 14.188,-41.624l0.028,-0.053l0.028,-0.055c10.423,-20.278 35.175,-53.164 57.026,-72.873c27.845,-26.628 37.473,-30.351 70.477,-43.235c2.918,-4.616 9.032,-13.81 16.374,-21.877c7.143,-7.848 15.56,-14.405 23.377,-16.411c2.287,-0.587 4.63,-0.884 7.008,-0.906l0.168,0c2.498,0.023 3.91,0.289 6.312,0.906c7.817,2.006 16.234,8.563 23.377,16.411c7.342,8.067 13.455,17.26 16.373,21.876c33.005,12.885 42.633,16.608 70.478,43.236c21.851,19.709 46.603,52.595 57.026,72.873l0.028,0.055l0.028,0.053c5.899,11.339 11.403,26.731 14.188,41.624l0.019,0.103c0.047,0.253 0.084,0.507 0.109,0.763l0.002,0.016c0.865,8.731 6.235,29.949 -18.754,57.241c3.17,3.123 6.973,6.63 11.005,9.698c3.973,3.024 8.113,5.717 12.034,6.579c23.159,5.093 46.519,22.022 56.869,34.622c4.142,5.043 6.357,9.766 6.896,13.192l-0.051,4.746l-1.261,3.529l-2.075,2.779l-3.241,2.543c-3.075,1.891 -8.25,3.781 -14.8,4.99c-19.489,3.598 -51.927,1.455 -70.027,-16.708c-11.188,-11.226 -15.777,-25.092 -17.642,-38.078c-5.104,3.613 -11.006,6.9 -17.718,9.939c-22.506,10.187 -54.822,17.699 -96.573,26.897c-20.414,5.384 -34.144,8.575 -52.392,16.501c-32.854,14.269 -61.18,32.784 -76.189,51.168c-8.002,9.801 -12.392,19.162 -8.995,27.611c3.197,7.952 10.541,13.254 22.028,16.62c13.951,4.089 33.344,5.151 58.964,3.304l0.022,-0.001c1.612,-0.117 3.155,0.207 4.511,0.867c1.358,0.658 2.566,1.671 3.471,3.009l0.011,0.017c12.64,18.681 33.455,29.283 61.61,30.618c32.399,1.536 59.802,-17.783 61.235,-41.667c-9.906,12.383 -25.755,16.912 -39.166,17.984c-0.382,0.03 -0.76,0.036 -1.133,0.018c-3.806,0.192 -7.45,-2.104 -8.796,-5.876c-1.38,-3.864 -5.185,-6.115 -9.357,-7.744c-5.242,-2.046 -11.305,-2.879 -16.615,-2.821c-0.43,0.018 -0.862,0.027 -1.295,0.027c-4.779,0.001 -8.706,-3.8 -8.861,-8.577c-0.003,-0.096 -0.005,-0.193 -0.005,-0.29c-0.001,-4.779 3.8,-8.706 8.576,-8.861c0.342,-0.012 0.687,-0.02 1.034,-0.025c4.961,-0.27 9.424,-3.224 11.722,-7.718c-6.826,-8.245 -9.332,-19.046 -9.353,-27.963l0.028,-0.298c-0.048,-0.593 -0.037,-1.2 0.039,-1.813c0.565,-4.564 2.014,-9.493 4.181,-14.227c-6.728,2.381 -13.531,6.143 -19.475,11.496c-9.796,8.821 -17.065,18.382 -19.718,28.101c-1.289,4.721 -6.168,7.507 -10.888,6.218c-4.721,-1.288 -7.507,-6.167 -6.219,-10.888c3.425,-12.544 12.315,-25.223 24.959,-36.609c16.345,-14.718 37.671,-20.124 52.774,-19.156l0.024,0.001c1.483,0.096 2.858,0.552 4.044,1.277c1.189,0.723 2.224,1.736 2.988,3.011c0.93,1.548 1.361,3.328 1.244,5.131c-0.096,1.483 -0.551,2.858 -1.277,4.044c-0.722,1.189 -1.736,2.224 -3.01,2.988l-0.011,0.007c-6.583,3.954 -10.906,12.941 -11.953,20.301l0.002,0.374c0.014,5.875 1.439,13.335 6.744,18.246c0.51,0.472 0.952,0.991 1.326,1.544c1.92,2.021 2.861,4.914 2.273,7.853c-0.95,4.745 -2.87,9.016 -5.503,12.655c1.193,0.504 2.353,1.051 3.469,1.644c4.663,2.475 8.601,5.716 11.445,9.692c11.869,-1.853 25.253,-7.678 27.317,-24.996c-0.021,-0.224 -0.073,-0.763 -0.101,-1.083l-0.003,-0.029c-0.137,-1.571 0.144,-3.082 0.752,-4.423c0.604,-1.343 1.551,-2.553 2.82,-3.488c1.315,-0.97 2.859,-1.554 4.487,-1.695c1.57,-0.138 3.081,0.143 4.422,0.751c1.343,0.605 2.554,1.552 3.489,2.821l0.015,0.021c6.646,9.025 10.356,19.404 10.356,30.411c0,33.167 -35.315,63.455 -79.866,61.343c-32.492,-1.54 -56.724,-13.739 -72.441,-34.211c-25.92,1.533 -45.766,-0.04 -60.295,-4.298c-17.914,-5.25 -28.508,-14.621 -33.494,-27.022c-5.489,-13.653 -1.219,-29.602 11.712,-45.441c16.376,-20.057 47.016,-40.65 82.86,-56.218c19.191,-8.335 33.593,-11.751 55.098,-17.426l0.011,-0.003c0.118,-0.031 0.236,-0.059 0.355,-0.086c40.304,-8.877 71.542,-15.945 93.253,-25.773c10.346,-4.683 18.353,-9.927 23.78,-16.528Zm11.961,-96.684c-14.381,-27.082 -42.997,-57.474 -52.632,-67.297c-5.588,-2.869 -10.308,-3.769 -14.312,-2.696c-6.381,1.711 -10.201,7.995 -12.62,15.125c-2.954,8.706 -3.533,19.026 -1.798,27.571c0.952,4.685 2.485,8.843 5.106,11.405c4.745,4.64 12.804,6.466 20.933,9.105c11.025,3.579 22.236,7.993 30.082,16.392c13.049,13.967 23.786,23.587 32.093,27.001c1.549,0.637 2.757,1.41 3.788,0.874c0.806,-0.418 1.186,-1.309 1.509,-2.49c-2.242,-10.244 -6.987,-24.882 -12.093,-34.882l-0.028,-0.055l-0.028,-0.053Zm-316.098,0.053l-0.028,0.055c-5.106,10 -9.851,24.638 -12.093,34.882c0.323,1.181 0.703,2.072 1.509,2.49c1.031,0.536 2.239,-0.237 3.788,-0.874c8.307,-3.414 19.044,-13.034 32.093,-27.001c7.846,-8.399 19.057,-12.813 30.082,-16.392c8.129,-2.639 16.188,-4.465 20.933,-9.105c2.621,-2.562 4.154,-6.72 5.106,-11.405c1.735,-8.545 1.156,-18.865 -1.798,-27.571c-2.419,-7.13 -6.239,-13.414 -12.62,-15.125c-4.004,-1.073 -8.724,-0.173 -14.312,2.696c-9.635,9.823 -38.251,40.215 -52.632,67.297l-0.028,0.053Z"/>
</svg>