<?xml version="1.0" encoding="UTF-8" standalone="no"?>
<!DOCTYPE svg PUBLIC "-//W3C//DTD SVG 1.1//EN" "http://www.w3.org/Graphics/SVG/1.1/DTD/svg11.dtd">
<svg width="100%" height="100%" viewBox="0 0 512 512" version="1.1" xmlns="http://www.w3.org/2000/svg" xmlns:xlink="http://www.w3.org/1999/xlink" xml:space="preserve" xmlns:serif="http://www.serif.com/" style="fill-rule:evenodd;clip-rule:evenodd;stroke-linecap:round;stroke-linejoin:round;stroke-miterlimit:0;">
    <g id="アートボード1" transform="matrix(0.586863,0,0,0.708007,30.1692,3.64548)">
        <rect x="-51.408" y="-5.149" width="872.358" height="723.095" style="fill:none;"/>
        <g id="レイヤー1" transform="matrix(1.37265,0,0,1.13778,-287.91,-223.495)">
            <g transform="matrix(0.907059,0,0,0.910676,130.875,210.013)">
                <path d="M186.368,343.153C186.314,363.318 189.506,399.544 164.407,424.63C133.518,455.501 67.322,445.946 61.863,435.987C56.156,425.576 97.449,387.046 138.21,378.117C155.194,374.397 175.584,352.848 183.786,344.326C184.375,344.878 184.974,345.431 185.585,345.982C185.747,345.337 185.986,344.378 186.368,343.153ZM183.786,344.326C145.159,308.106 152.388,279.675 153.497,268.481C160.807,297.364 186.909,283.375 225.395,242.346C243.827,222.696 278.845,223.136 293.963,208.413C319.15,183.887 304.67,88.765 246.17,120.722C283.37,85.272 295.56,81.278 341.353,63.452C344.205,58.776 368.24,19.366 389.899,13.829C392.04,13.281 394.234,13.01 396.461,12.99L395.641,237.278C385.517,237.802 378.421,238.737 369.486,240.83C349.4,245.534 330.34,254.438 311.313,274.978C302.237,284.776 261.783,278.929 227.423,298.916C197.006,316.61 188.803,335.326 186.368,343.153C186.369,342.654 186.372,342.165 186.378,341.687C185.755,342.287 184.878,343.191 183.786,344.326ZM153.497,268.481C157.031,249.568 164.041,230.003 171.566,215.617C163.72,230.863 156.431,253.734 153.497,268.481ZM171.566,215.617C185.136,189.248 217.59,146.355 246.17,120.722C234.268,132.702 192.274,176.686 171.566,215.617ZM605.613,343.153C605.667,363.318 602.475,399.544 627.574,424.63C658.462,455.501 724.658,445.946 730.118,435.987C735.824,425.576 694.532,387.046 653.771,378.117C636.786,374.397 616.397,352.848 608.195,344.326C607.606,344.878 607.006,345.431 606.396,345.982C606.234,345.337 605.994,344.378 605.613,343.153ZM608.195,344.326C646.821,308.106 639.593,279.675 638.484,268.481C631.173,297.364 605.071,283.375 566.585,242.346C548.154,222.696 513.136,223.136 498.018,208.413C472.831,183.887 487.31,88.765 545.81,120.722C508.611,85.272 496.421,81.278 450.628,63.452C447.776,58.776 423.741,19.366 402.081,13.829C399.94,13.281 398.687,13.01 396.461,12.99L395.641,237.278C405.766,237.802 413.56,238.737 422.495,240.83C442.58,245.534 461.641,254.438 480.668,274.978C489.744,284.776 530.197,278.929 564.557,298.916C594.975,316.61 603.177,335.326 605.613,343.153C605.611,342.654 605.608,342.165 605.602,341.687C606.226,342.287 607.102,343.191 608.195,344.326ZM638.484,268.481C634.949,249.568 627.939,230.003 620.415,215.617C628.26,230.863 635.549,253.734 638.484,268.481ZM620.415,215.617C606.844,189.248 574.391,146.355 545.81,120.722C557.712,132.702 599.706,176.686 620.415,215.617Z" style="stroke:black;stroke-width:24.59px;"/>
            </g>
            <g transform="matrix(0.907059,0,0,0.910676,20.7796,48.8514)">
                <path d="M705.905,454.789C725.903,469.004 739.606,485.986 737.488,503.932C731.155,557.602 670.219,572.519 559.196,596.876M662.788,717.404C670.234,727.467 674.469,739.015 674.469,751.29C674.469,790.289 631.665,824.433 579.074,821.95C536.62,819.946 505.48,803.536 486.428,775.473M486.428,775.473C413.456,780.715 376.007,768.596 364.95,741.2C349.944,704.025 409.052,653.218 486.428,619.745C511.767,608.783 530.797,604.34 559.196,596.876M504.611,712.307C508.719,697.322 519.639,682.351 534.804,668.75C554.198,651.356 579.462,644.852 597.374,646.004M588.343,717.404C578.567,708.389 575.412,694.894 575.386,684.111C575.383,682.489 575.333,683.037 575.386,682.764M575.386,682.764C577.037,669.494 585.33,653.198 597.374,646.004M589.598,718.953C586.584,733.948 573.621,744.136 559.196,744.136M559.196,744.136C577.162,743.55 601.356,749.564 607.335,766.247M662.788,717.404C662.89,718.562 663.073,719.739 662.942,720.911C659.108,755.078 630.555,764.492 608.516,766.247" style="fill:none;stroke:black;stroke-width:24.22px;stroke-miterlimit:1.5;"/>
            </g>
        </g>
    </g>
</svg>
